<svg xmlns="http://www.w3.org/2000/svg" width="120" height="120">
  <defs>
    <style>
      path, line, rect, circle { fill: none; stroke: rgba(6,78,59,0.10); stroke-linecap: round; stroke-linejoin: round; }
    </style>
  </defs>

  <!-- Chef toque — top-left -->
  <g transform="translate(14,8) scale(1.15)" stroke-width="1.1">
    <path d="M10 5a4 4 0 00-4 4v4h8V9a4 4 0 00-4-4z"/>
    <rect x="6" y="13" width="8" height="2.8" rx="0.4"/>
    <line x1="6" y1="14.4" x2="14" y2="14.4"/>
  </g>

  <!-- Chef's knife — center, diagonal -->
  <g transform="translate(42,42) rotate(-42)" stroke-width="1.0">
    <path d="M2 16L13 5c.6-.6 1.5-.5 1.5.4L6 18z"/>
    <line x1="2" y1="16" x2="1" y2="17"/>
    <line x1="6" y1="18" x2="2" y2="16"/>
    <line x1="13" y1="5" x2="12" y2="6"/>
  </g>

  <!-- Fork — bottom-right -->
  <g transform="translate(82,74) scale(1.1)" stroke-width="1.0">
    <line x1="5" y1="1" x2="5" y2="6"/>
    <line x1="8" y1="1" x2="8" y2="7"/>
    <line x1="11" y1="1" x2="11" y2="6"/>
    <path d="M5 6C5 9 11 9 11 6"/>
    <line x1="8" y1="9" x2="8" y2="17"/>
  </g>

  <!-- Whisk — bottom-left -->
  <g transform="translate(10,75) scale(1.05)" stroke-width="1.0">
    <line x1="9" y1="11" x2="9" y2="18"/>
    <path d="M6 2C5 4.5 5 7 6.5 8.5C8 10 9 11 9 11C9 11 10 10 11.5 8.5C13 7 13 4.5 12 2"/>
    <path d="M4.5 3.5C3 5.5 3 8 5 9.5L9 11"/>
    <path d="M13.5 3.5C15 5.5 15 8 13 9.5L9 11"/>
    <path d="M6 2C7.5 2.8 10.5 2.8 12 2"/>
  </g>

  <!-- Spoon — top-right -->
  <g transform="translate(84,6) scale(1.0)" stroke-width="1.0">
    <ellipse cx="8" cy="5" rx="4" ry="5"/>
    <line x1="8" y1="10" x2="8" y2="22"/>
  </g>

</svg>
